<?xml version="1.0" standalone="no"?>
<svg xmlns:xlink="http://www.w3.org/1999/xlink" id="wave" style="transform:rotate(0deg); transition: 0.3s" viewBox="0 0 1440 490" version="1.1" xmlns="http://www.w3.org/2000/svg"><defs><linearGradient id="sw-gradient-0" x1="0" x2="0" y1="1" y2="0"><stop stop-color="rgba(6.224, 31.064, 91.392, 1)" offset="0%"/><stop stop-color="rgba(13, 20, 37, 1)" offset="100%"/></linearGradient></defs><path style="transform:translate(0, 0px); opacity:1" fill="url(#sw-gradient-0)" d="M0,245L80,212.3C160,180,320,114,480,73.5C640,33,800,16,960,49C1120,82,1280,163,1440,212.3C1600,261,1760,278,1920,294C2080,310,2240,327,2400,351.2C2560,376,2720,408,2880,383.8C3040,359,3200,278,3360,236.8C3520,196,3680,196,3840,220.5C4000,245,4160,294,4320,318.5C4480,343,4640,343,4800,351.2C4960,359,5120,376,5280,334.8C5440,294,5600,196,5760,138.8C5920,82,6080,65,6240,57.2C6400,49,6560,49,6720,57.2C6880,65,7040,82,7200,73.5C7360,65,7520,33,7680,89.8C7840,147,8000,294,8160,302.2C8320,310,8480,180,8640,179.7C8800,180,8960,310,9120,310.3C9280,310,9440,180,9600,122.5C9760,65,9920,82,10080,147C10240,212,10400,327,10560,359.3C10720,392,10880,343,11040,318.5C11200,294,11360,294,11440,294L11520,294L11520,490L11440,490C11360,490,11200,490,11040,490C10880,490,10720,490,10560,490C10400,490,10240,490,10080,490C9920,490,9760,490,9600,490C9440,490,9280,490,9120,490C8960,490,8800,490,8640,490C8480,490,8320,490,8160,490C8000,490,7840,490,7680,490C7520,490,7360,490,7200,490C7040,490,6880,490,6720,490C6560,490,6400,490,6240,490C6080,490,5920,490,5760,490C5600,490,5440,490,5280,490C5120,490,4960,490,4800,490C4640,490,4480,490,4320,490C4160,490,4000,490,3840,490C3680,490,3520,490,3360,490C3200,490,3040,490,2880,490C2720,490,2560,490,2400,490C2240,490,2080,490,1920,490C1760,490,1600,490,1440,490C1280,490,1120,490,960,490C800,490,640,490,480,490C320,490,160,490,80,490L0,490Z"/></svg>